<svg xmlns="http://www.w3.org/2000/svg" xmlns:xlink="http://www.w3.org/1999/xlink" width="1038" zoomAndPan="magnify" viewBox="0 0 778.5 69.749997" height="93" preserveAspectRatio="xMidYMid meet" version="1.0"><defs><g/><clipPath id="b6ed0bc97b"><path d="M 1.140625 0 L 767 0 L 767 61 L 1.140625 61 Z M 1.140625 0 " clip-rule="nonzero"/></clipPath><clipPath id="772f913ee1"><path d="M 447 31 L 765.875 31 L 765.875 60.742188 L 447 60.742188 Z M 447 31 " clip-rule="nonzero"/></clipPath><clipPath id="426b67706e"><rect x="0" width="319" y="0" height="30"/></clipPath><clipPath id="4180898304"><path d="M 241.320312 0.355469 L 335.753906 0.355469 L 335.753906 55.242188 L 241.320312 55.242188 Z M 241.320312 0.355469 " clip-rule="nonzero"/></clipPath><clipPath id="d45c9a1c7d"><path d="M 253.25 0.355469 L 266.472656 53.597656 L 279.152344 0.585938 L 298.324219 0.40625 L 311.335938 53.589844 L 324.566406 0.355469 L 335.71875 0.355469 L 321.226562 54.914062 L 301.019531 55.089844 L 288.777344 1.902344 L 276.585938 55.140625 L 256.15625 55.175781 L 241.320312 0.355469 Z M 253.25 0.355469 " clip-rule="nonzero"/></clipPath><clipPath id="0f654281c6"><path d="M 0.320312 0.355469 L 94.753906 0.355469 L 94.753906 55.242188 L 0.320312 55.242188 Z M 0.320312 0.355469 " clip-rule="nonzero"/></clipPath><clipPath id="c34b27403a"><path d="M 12.25 0.355469 L 25.472656 53.597656 L 38.152344 0.585938 L 57.324219 0.40625 L 70.335938 53.589844 L 83.566406 0.355469 L 94.71875 0.355469 L 80.226562 54.914062 L 60.019531 55.089844 L 47.777344 1.902344 L 35.585938 55.140625 L 15.15625 55.175781 L 0.320312 0.355469 Z M 12.25 0.355469 " clip-rule="nonzero"/></clipPath><clipPath id="1918291e8c"><rect x="0" width="95" y="0" height="56"/></clipPath><clipPath id="44ad911708"><path d="M 170.804688 0.371094 L 220.0625 0.371094 L 220.0625 55.15625 L 170.804688 55.15625 Z M 170.804688 0.371094 " clip-rule="nonzero"/></clipPath><clipPath id="4aead9fe84"><path d="M 182.210938 0.371094 L 182.210938 24.65625 L 205.285156 0.371094 L 219.542969 0.371094 L 195.195312 25.949219 L 220.0625 55.144531 L 206.320312 55.144531 L 182.210938 27.242188 L 182.210938 55.144531 L 170.804688 55.144531 L 170.804688 0.371094 Z M 182.210938 0.371094 " clip-rule="nonzero"/></clipPath><clipPath id="196c60713d"><path d="M 0.804688 0.371094 L 50.0625 0.371094 L 50.0625 55.15625 L 0.804688 55.15625 Z M 0.804688 0.371094 " clip-rule="nonzero"/></clipPath><clipPath id="4de5656619"><path d="M 12.210938 0.371094 L 12.210938 24.65625 L 35.285156 0.371094 L 49.542969 0.371094 L 25.195312 25.949219 L 50.0625 55.144531 L 36.320312 55.144531 L 12.210938 27.242188 L 12.210938 55.144531 L 0.804688 55.144531 L 0.804688 0.371094 Z M 12.210938 0.371094 " clip-rule="nonzero"/></clipPath><clipPath id="801d9fbbd4"><rect x="0" width="51" y="0" height="56"/></clipPath><clipPath id="e6e326849b"><path d="M 331 0 L 392.8125 0 L 392.8125 55.160156 L 331 55.160156 Z M 331 0 " clip-rule="nonzero"/></clipPath><clipPath id="0dd48fabe1"><path d="M 392.753906 55.160156 L 381.078125 55.160156 L 361.878906 1.898438 L 342.679688 55.160156 L 331.003906 55.160156 L 351.207031 1.09375 C 351.667969 0.429688 352.320312 0.421875 353.035156 0.328125 C 356.417969 -0.125 367.285156 -0.0898438 370.730469 0.320312 C 371.304688 0.390625 371.863281 0.332031 372.261719 0.863281 Z M 392.753906 55.160156 " clip-rule="nonzero"/></clipPath><clipPath id="40ffa87c8a"><path d="M 0 0 L 61.8125 0 L 61.8125 55.160156 L 0 55.160156 Z M 0 0 " clip-rule="nonzero"/></clipPath><clipPath id="219f123be8"><path d="M 61.753906 55.160156 L 50.078125 55.160156 L 30.878906 1.898438 L 11.679688 55.160156 L 0.00390625 55.160156 L 20.207031 1.09375 C 20.667969 0.429688 21.320312 0.421875 22.035156 0.328125 C 25.417969 -0.125 36.285156 -0.0898438 39.730469 0.320312 C 40.304688 0.390625 40.863281 0.332031 41.261719 0.863281 Z M 61.753906 55.160156 " clip-rule="nonzero"/></clipPath><clipPath id="d5c1ba1f7e"><rect x="0" width="62" y="0" height="56"/></clipPath><clipPath id="ee2ff6c165"><path d="M 46.828125 0 L 108.703125 0 L 108.703125 55.160156 L 46.828125 55.160156 Z M 46.828125 0 " clip-rule="nonzero"/></clipPath><clipPath id="05ecc9c86c"><path d="M 108.640625 55.160156 L 96.964844 55.160156 L 77.765625 1.898438 L 58.570312 55.160156 L 46.894531 55.160156 L 67.097656 1.09375 C 67.554688 0.429688 68.210938 0.421875 68.921875 0.328125 C 72.308594 -0.125 83.175781 -0.0898438 86.617188 0.320312 C 87.191406 0.390625 87.753906 0.332031 88.152344 0.863281 Z M 108.640625 55.160156 " clip-rule="nonzero"/></clipPath><clipPath id="337e4ca33e"><path d="M 0.828125 0 L 62.703125 0 L 62.703125 55.160156 L 0.828125 55.160156 Z M 0.828125 0 " clip-rule="nonzero"/></clipPath><clipPath id="37a7e4df3e"><path d="M 62.640625 55.160156 L 50.964844 55.160156 L 31.765625 1.898438 L 12.570312 55.160156 L 0.894531 55.160156 L 21.097656 1.09375 C 21.554688 0.429688 22.210938 0.421875 22.921875 0.328125 C 26.308594 -0.125 37.175781 -0.0898438 40.617188 0.320312 C 41.191406 0.390625 41.753906 0.332031 42.152344 0.863281 Z M 62.640625 55.160156 " clip-rule="nonzero"/></clipPath><clipPath id="6123775957"><rect x="0" width="63" y="0" height="56"/></clipPath><clipPath id="71170cd6e8"><path d="M 384.941406 0.371094 L 444.636719 0.371094 L 444.636719 55.199219 L 384.941406 55.199219 Z M 384.941406 0.371094 " clip-rule="nonzero"/></clipPath><clipPath id="00c78ea5aa"><path d="M 397.902344 0.371094 L 415.007812 34.992188 L 431.605469 0.371094 L 444.570312 0.371094 L 416.050781 55.144531 L 404.644531 55.144531 L 413.976562 36.542969 L 404.386719 36.542969 L 384.941406 0.371094 Z M 397.902344 0.371094 " clip-rule="nonzero"/></clipPath><clipPath id="c7820098fa"><path d="M 0.941406 0.371094 L 60.636719 0.371094 L 60.636719 55.199219 L 0.941406 55.199219 Z M 0.941406 0.371094 " clip-rule="nonzero"/></clipPath><clipPath id="aa4c71f38e"><path d="M 13.902344 0.371094 L 31.007812 34.992188 L 47.605469 0.371094 L 60.570312 0.371094 L 32.050781 55.144531 L 20.644531 55.144531 L 29.976562 36.542969 L 20.386719 36.542969 L 0.941406 0.371094 Z M 13.902344 0.371094 " clip-rule="nonzero"/></clipPath><clipPath id="c158ebddf2"><rect x="0" width="61" y="0" height="56"/></clipPath><clipPath id="874ff0a94b"><path d="M 70.316406 33.941406 L 86.230469 33.941406 L 86.230469 50.042969 L 70.316406 50.042969 Z M 70.316406 33.941406 " clip-rule="nonzero"/></clipPath><clipPath id="39769e116e"><path d="M 76.855469 34.070312 C 87.914062 32.328125 89.632812 48.859375 79.265625 49.949219 C 68.789062 51.046875 67.050781 35.613281 76.855469 34.070312 Z M 76.855469 34.070312 " clip-rule="nonzero"/></clipPath><clipPath id="2781054c28"><path d="M 0.316406 0.941406 L 16.230469 0.941406 L 16.230469 17 L 0.316406 17 Z M 0.316406 0.941406 " clip-rule="nonzero"/></clipPath><clipPath id="d0f8f1cd95"><path d="M 6.855469 1.070312 C 17.914062 -0.671875 19.632812 15.859375 9.265625 16.949219 C -1.210938 18.046875 -2.949219 2.613281 6.855469 1.070312 Z M 6.855469 1.070312 " clip-rule="nonzero"/></clipPath><clipPath id="57ada7ded5"><rect x="0" width="17" y="0" height="18"/></clipPath><clipPath id="c18e883125"><path d="M 353.96875 33.941406 L 369.765625 33.941406 L 369.765625 50.042969 L 353.96875 50.042969 Z M 353.96875 33.941406 " clip-rule="nonzero"/></clipPath><clipPath id="1e3ad23d64"><path d="M 360.449219 34.070312 C 371.507812 32.328125 373.226562 48.859375 362.859375 49.949219 C 352.382812 51.046875 350.644531 35.613281 360.449219 34.070312 Z M 360.449219 34.070312 " clip-rule="nonzero"/></clipPath><clipPath id="debfb7e982"><path d="M 0.96875 0.941406 L 16.765625 0.941406 L 16.765625 17 L 0.96875 17 Z M 0.96875 0.941406 " clip-rule="nonzero"/></clipPath><clipPath id="ad00c41274"><path d="M 7.449219 1.070312 C 18.507812 -0.671875 20.226562 15.859375 9.859375 16.949219 C -0.617188 18.046875 -2.355469 2.613281 7.449219 1.070312 Z M 7.449219 1.070312 " clip-rule="nonzero"/></clipPath><clipPath id="080db9bf13"><rect x="0" width="17" y="0" height="18"/></clipPath><clipPath id="5bc5428a94"><path d="M 114.773438 0.121094 L 159.746094 0.121094 L 159.746094 54.734375 L 114.773438 54.734375 Z M 114.773438 0.121094 " clip-rule="nonzero"/></clipPath><clipPath id="28e00e8ff6"><path d="M 0.140625 0.347656 L 44 0.347656 L 44 53.730469 L 0.140625 53.730469 Z M 0.140625 0.347656 " clip-rule="nonzero"/></clipPath><clipPath id="ea023a7f5d"><path d="M 37.84375 5.296875 C 33.746094 1.996094 28.039062 0.347656 20.71875 0.347656 L 0.140625 0.347656 L 0.140625 24.28125 L 12.75 24.28125 L 12.75 10.324219 L 20.71875 10.324219 C 23.972656 10.324219 26.507812 11.097656 28.324219 12.648438 C 30.140625 14.195312 31.050781 16.367188 31.050781 19.160156 C 31.050781 21.953125 30.140625 24.136719 28.324219 25.710938 C 26.507812 27.285156 23.972656 28.070312 20.71875 28.070312 L 0.140625 28.070312 L 0.140625 53.664062 L 12.75 53.664062 L 12.75 37.972656 L 20.71875 37.972656 C 28.039062 37.972656 33.746094 36.324219 37.84375 33.023438 C 41.9375 29.722656 43.984375 25.101562 43.984375 19.160156 C 43.984375 13.21875 41.9375 8.597656 37.84375 5.296875 Z M 37.84375 5.296875 " clip-rule="nonzero"/></clipPath><clipPath id="fa75cca150"><path d="M 0.140625 0.347656 L 44 0.347656 L 44 53.730469 L 0.140625 53.730469 Z M 0.140625 0.347656 " clip-rule="nonzero"/></clipPath><clipPath id="c5ed4f05fa"><path d="M 37.84375 5.296875 C 33.746094 1.996094 28.039062 0.347656 20.71875 0.347656 L 0.140625 0.347656 L 0.140625 24.28125 L 12.75 24.28125 L 12.75 10.324219 L 20.71875 10.324219 C 23.972656 10.324219 26.507812 11.097656 28.324219 12.648438 C 30.140625 14.195312 31.050781 16.367188 31.050781 19.160156 C 31.050781 21.953125 30.140625 24.136719 28.324219 25.710938 C 26.507812 27.285156 23.972656 28.070312 20.71875 28.070312 L 0.140625 28.070312 L 0.140625 53.664062 L 12.75 53.664062 L 12.75 37.972656 L 20.71875 37.972656 C 28.039062 37.972656 33.746094 36.324219 37.84375 33.023438 C 41.9375 29.722656 43.984375 25.101562 43.984375 19.160156 C 43.984375 13.21875 41.9375 8.597656 37.84375 5.296875 Z M 37.84375 5.296875 " clip-rule="nonzero"/></clipPath><clipPath id="9d4fb3ff2a"><rect x="0" width="44" y="0" height="54"/></clipPath><clipPath id="e78419ef16"><rect x="0" width="766" y="0" height="61"/></clipPath></defs><g clip-path="url(#b6ed0bc97b)"><g transform="matrix(1, 0, 0, 1, 1, 0.000000000000000149)"><g clip-path="url(#e78419ef16)"><g clip-path="url(#772f913ee1)"><g transform="matrix(1, 0, 0, 1, 447, 31)"><g clip-path="url(#426b67706e)"><g fill="#ffffff" fill-opacity="1"><g transform="translate(0.776515, 23.007254)"><g><path d="M 8.171875 0.296875 C 6.710938 0.296875 5.484375 0.0078125 4.484375 -0.5625 C 3.492188 -1.144531 2.78125 -1.929688 2.34375 -2.921875 C 1.914062 -3.910156 1.800781 -5.03125 2 -6.28125 L 3.984375 -18.21875 L 6.28125 -18.21875 L 4.3125 -6.3125 C 4.164062 -5.414062 4.226562 -4.628906 4.5 -3.953125 C 4.769531 -3.285156 5.222656 -2.765625 5.859375 -2.390625 C 6.492188 -2.015625 7.296875 -1.828125 8.265625 -1.828125 C 9.265625 -1.828125 10.164062 -2.03125 10.96875 -2.4375 C 11.78125 -2.84375 12.441406 -3.390625 12.953125 -4.078125 C 13.472656 -4.773438 13.804688 -5.566406 13.953125 -6.453125 L 15.90625 -18.21875 L 18.203125 -18.21875 L 16.1875 -6.125 C 15.988281 -4.863281 15.519531 -3.75 14.78125 -2.78125 C 14.050781 -1.820312 13.117188 -1.066406 11.984375 -0.515625 C 10.859375 0.0234375 9.585938 0.296875 8.171875 0.296875 Z M 8.171875 0.296875 "/></g></g></g><g fill="#ffffff" fill-opacity="1"><g transform="translate(23.5001, 23.007254)"><g><path d="M 0.984375 0 L 4.015625 -18.21875 L 7.234375 -18.21875 L 9.84375 -6.65625 C 9.90625 -6.375 9.96875 -6.03125 10.03125 -5.625 C 10.101562 -5.21875 10.175781 -4.785156 10.25 -4.328125 C 10.320312 -3.867188 10.390625 -3.414062 10.453125 -2.96875 C 10.523438 -2.53125 10.582031 -2.132812 10.625 -1.78125 L 10.125 -1.828125 C 10.289062 -2.191406 10.484375 -2.597656 10.703125 -3.046875 C 10.921875 -3.492188 11.140625 -3.945312 11.359375 -4.40625 C 11.585938 -4.863281 11.800781 -5.289062 12 -5.6875 C 12.195312 -6.082031 12.367188 -6.410156 12.515625 -6.671875 L 18.890625 -18.21875 L 22.140625 -18.21875 L 19.125 0 L 16.859375 0 L 18.59375 -10.453125 C 18.65625 -10.859375 18.726562 -11.304688 18.8125 -11.796875 C 18.894531 -12.296875 18.984375 -12.804688 19.078125 -13.328125 C 19.179688 -13.847656 19.285156 -14.363281 19.390625 -14.875 C 19.492188 -15.394531 19.585938 -15.882812 19.671875 -16.34375 L 19.890625 -16.296875 C 19.609375 -15.734375 19.320312 -15.160156 19.03125 -14.578125 C 18.75 -14.003906 18.472656 -13.457031 18.203125 -12.9375 C 17.941406 -12.414062 17.695312 -11.9375 17.46875 -11.5 C 17.238281 -11.070312 17.039062 -10.710938 16.875 -10.421875 L 11.03125 0 L 9.0625 0 L 6.65625 -10.453125 C 6.570312 -10.828125 6.46875 -11.320312 6.34375 -11.9375 C 6.21875 -12.550781 6.085938 -13.238281 5.953125 -14 C 5.816406 -14.769531 5.675781 -15.550781 5.53125 -16.34375 L 5.78125 -16.296875 C 5.71875 -15.816406 5.648438 -15.3125 5.578125 -14.78125 C 5.503906 -14.257812 5.425781 -13.738281 5.34375 -13.21875 C 5.269531 -12.695312 5.195312 -12.195312 5.125 -11.71875 C 5.050781 -11.25 4.976562 -10.816406 4.90625 -10.421875 L 3.203125 0 Z M 0.984375 0 "/></g></g></g><g fill="#ffffff" fill-opacity="1"><g transform="translate(50.183202, 23.007254)"><g/></g></g><g fill="#ffffff" fill-opacity="1"><g transform="translate(61.382638, 23.007254)"><g><path d="M 0.984375 0 L 4.015625 -18.21875 L 10.296875 -18.21875 C 11.671875 -18.21875 12.773438 -17.960938 13.609375 -17.453125 C 14.453125 -16.953125 15.035156 -16.269531 15.359375 -15.40625 C 15.679688 -14.539062 15.753906 -13.566406 15.578125 -12.484375 C 15.390625 -11.378906 14.992188 -10.390625 14.390625 -9.515625 C 13.796875 -8.648438 12.992188 -7.960938 11.984375 -7.453125 C 10.972656 -6.953125 9.773438 -6.703125 8.390625 -6.703125 L 3.78125 -6.703125 L 4.125 -8.734375 L 8.640625 -8.734375 C 9.597656 -8.734375 10.394531 -8.894531 11.03125 -9.21875 C 11.675781 -9.550781 12.179688 -10 12.546875 -10.5625 C 12.921875 -11.132812 13.164062 -11.773438 13.28125 -12.484375 C 13.394531 -13.203125 13.359375 -13.835938 13.171875 -14.390625 C 12.992188 -14.953125 12.632812 -15.390625 12.09375 -15.703125 C 11.550781 -16.023438 10.804688 -16.1875 9.859375 -16.1875 L 5.96875 -16.1875 L 3.28125 0 Z M 0.984375 0 "/></g></g></g><g fill="#ffffff" fill-opacity="1"><g transform="translate(81.55209, 23.007254)"><g><path d="M 0.984375 0 L 4.015625 -18.21875 L 10.34375 -18.21875 C 11.738281 -18.21875 12.851562 -17.972656 13.6875 -17.484375 C 14.53125 -17.003906 15.109375 -16.34375 15.421875 -15.5 C 15.742188 -14.65625 15.816406 -13.691406 15.640625 -12.609375 C 15.453125 -11.515625 15.054688 -10.550781 14.453125 -9.71875 C 13.859375 -8.894531 13.0625 -8.25 12.0625 -7.78125 C 11.0625 -7.320312 9.875 -7.09375 8.5 -7.09375 L 3.453125 -7.09375 L 3.78125 -9.125 L 8.765625 -9.125 C 9.703125 -9.125 10.488281 -9.265625 11.125 -9.546875 C 11.769531 -9.835938 12.273438 -10.25 12.640625 -10.78125 C 13.003906 -11.3125 13.242188 -11.929688 13.359375 -12.640625 C 13.546875 -13.765625 13.359375 -14.632812 12.796875 -15.25 C 12.242188 -15.875 11.28125 -16.1875 9.90625 -16.1875 L 5.96875 -16.1875 L 3.28125 0 Z M 11.53125 0 L 8.5 -8.203125 L 11.03125 -8.203125 L 14.140625 0 Z M 11.53125 0 "/></g></g></g><g fill="#ffffff" fill-opacity="1"><g transform="translate(101.929295, 23.007254)"><g><path d="M 8.5 0.25 C 7.113281 0.25 5.90625 -0.046875 4.875 -0.640625 C 3.851562 -1.242188 3.054688 -2.097656 2.484375 -3.203125 C 1.910156 -4.304688 1.625 -5.609375 1.625 -7.109375 C 1.625 -8.554688 1.851562 -9.957031 2.3125 -11.3125 C 2.769531 -12.664062 3.425781 -13.878906 4.28125 -14.953125 C 5.132812 -16.023438 6.15625 -16.878906 7.34375 -17.515625 C 8.53125 -18.148438 9.863281 -18.46875 11.34375 -18.46875 C 12.726562 -18.46875 13.929688 -18.164062 14.953125 -17.5625 C 15.984375 -16.96875 16.78125 -16.117188 17.34375 -15.015625 C 17.914062 -13.921875 18.203125 -12.613281 18.203125 -11.09375 C 18.203125 -9.644531 17.972656 -8.242188 17.515625 -6.890625 C 17.054688 -5.535156 16.398438 -4.320312 15.546875 -3.25 C 14.703125 -2.175781 13.679688 -1.320312 12.484375 -0.6875 C 11.296875 -0.0625 9.96875 0.25 8.5 0.25 Z M 8.59375 -1.875 C 9.726562 -1.875 10.753906 -2.132812 11.671875 -2.65625 C 12.585938 -3.175781 13.363281 -3.875 14 -4.75 C 14.632812 -5.632812 15.117188 -6.617188 15.453125 -7.703125 C 15.796875 -8.796875 15.96875 -9.910156 15.96875 -11.046875 C 15.96875 -12.191406 15.765625 -13.15625 15.359375 -13.9375 C 14.953125 -14.726562 14.394531 -15.328125 13.6875 -15.734375 C 12.976562 -16.140625 12.164062 -16.34375 11.25 -16.34375 C 10.113281 -16.34375 9.085938 -16.082031 8.171875 -15.5625 C 7.265625 -15.039062 6.488281 -14.335938 5.84375 -13.453125 C 5.195312 -12.566406 4.703125 -11.582031 4.359375 -10.5 C 4.023438 -9.414062 3.859375 -8.300781 3.859375 -7.15625 C 3.859375 -6.007812 4.0625 -5.039062 4.46875 -4.25 C 4.875 -3.46875 5.429688 -2.875 6.140625 -2.46875 C 6.859375 -2.070312 7.675781 -1.875 8.59375 -1.875 Z M 8.59375 -1.875 "/></g></g></g><g fill="#ffffff" fill-opacity="1"><g transform="translate(125.3128, 23.007254)"><g><path d="M 5.546875 0.25 C 4.128906 0.25 2.984375 -0.125 2.109375 -0.875 C 1.242188 -1.625 0.8125 -2.6875 0.8125 -4.0625 C 0.8125 -4.1875 0.816406 -4.320312 0.828125 -4.46875 C 0.835938 -4.613281 0.859375 -4.820312 0.890625 -5.09375 C 0.929688 -5.363281 0.984375 -5.726562 1.046875 -6.1875 L 3.34375 -6.1875 C 3.28125 -5.757812 3.226562 -5.425781 3.1875 -5.1875 C 3.15625 -4.957031 3.132812 -4.78125 3.125 -4.65625 C 3.113281 -4.539062 3.109375 -4.4375 3.109375 -4.34375 C 3.109375 -3.519531 3.34375 -2.882812 3.8125 -2.4375 C 4.28125 -1.988281 4.925781 -1.765625 5.75 -1.765625 C 6.664062 -1.765625 7.460938 -2.050781 8.140625 -2.625 C 8.828125 -3.207031 9.265625 -4.066406 9.453125 -5.203125 L 11.609375 -18.21875 L 13.90625 -18.21875 L 11.75 -5.203125 C 11.457031 -3.472656 10.753906 -2.128906 9.640625 -1.171875 C 8.523438 -0.222656 7.160156 0.25 5.546875 0.25 Z M 5.546875 0.25 "/></g></g></g><g fill="#ffffff" fill-opacity="1"><g transform="translate(143.734688, 23.007254)"><g><path d="M 0.984375 0 L 4.015625 -18.21875 L 15.28125 -18.21875 L 14.9375 -16.1875 L 5.96875 -16.1875 L 4.984375 -10.25 L 13.328125 -10.25 L 13 -8.21875 L 4.640625 -8.21875 L 3.625 -2.015625 L 12.671875 -2.015625 L 12.34375 0 Z M 0.984375 0 "/></g></g></g><g fill="#ffffff" fill-opacity="1"><g transform="translate(162.987585, 23.007254)"><g><path d="M 2.640625 -16.1875 L 2.984375 -18.21875 L 16.8125 -18.21875 L 16.46875 -16.1875 L 10.71875 -16.1875 L 8.046875 0 L 5.75 0 L 8.421875 -16.1875 Z M 2.640625 -16.1875 "/></g></g></g><g fill="#ffffff" fill-opacity="1"><g transform="translate(182.484622, 23.007254)"><g><path d="M 8.5 0.25 C 7.113281 0.25 5.90625 -0.046875 4.875 -0.640625 C 3.851562 -1.242188 3.054688 -2.097656 2.484375 -3.203125 C 1.910156 -4.304688 1.625 -5.609375 1.625 -7.109375 C 1.625 -8.554688 1.851562 -9.957031 2.3125 -11.3125 C 2.769531 -12.664062 3.425781 -13.878906 4.28125 -14.953125 C 5.132812 -16.023438 6.15625 -16.878906 7.34375 -17.515625 C 8.53125 -18.148438 9.863281 -18.46875 11.34375 -18.46875 C 12.726562 -18.46875 13.929688 -18.164062 14.953125 -17.5625 C 15.984375 -16.96875 16.78125 -16.117188 17.34375 -15.015625 C 17.914062 -13.921875 18.203125 -12.613281 18.203125 -11.09375 C 18.203125 -9.644531 17.972656 -8.242188 17.515625 -6.890625 C 17.054688 -5.535156 16.398438 -4.320312 15.546875 -3.25 C 14.703125 -2.175781 13.679688 -1.320312 12.484375 -0.6875 C 11.296875 -0.0625 9.96875 0.25 8.5 0.25 Z M 8.59375 -1.875 C 9.726562 -1.875 10.753906 -2.132812 11.671875 -2.65625 C 12.585938 -3.175781 13.363281 -3.875 14 -4.75 C 14.632812 -5.632812 15.117188 -6.617188 15.453125 -7.703125 C 15.796875 -8.796875 15.96875 -9.910156 15.96875 -11.046875 C 15.96875 -12.191406 15.765625 -13.15625 15.359375 -13.9375 C 14.953125 -14.726562 14.394531 -15.328125 13.6875 -15.734375 C 12.976562 -16.140625 12.164062 -16.34375 11.25 -16.34375 C 10.113281 -16.34375 9.085938 -16.082031 8.171875 -15.5625 C 7.265625 -15.039062 6.488281 -14.335938 5.84375 -13.453125 C 5.195312 -12.566406 4.703125 -11.582031 4.359375 -10.5 C 4.023438 -9.414062 3.859375 -8.300781 3.859375 -7.15625 C 3.859375 -6.007812 4.0625 -5.039062 4.46875 -4.25 C 4.875 -3.46875 5.429688 -2.875 6.140625 -2.46875 C 6.859375 -2.070312 7.675781 -1.875 8.59375 -1.875 Z M 8.59375 -1.875 "/></g></g></g><g fill="#ffffff" fill-opacity="1"><g transform="translate(205.868127, 23.007254)"><g/></g></g><g fill="#ffffff" fill-opacity="1"><g transform="translate(217.067562, 23.007254)"><g><path d="M 0.984375 0 L 4.015625 -18.21875 L 7.234375 -18.21875 L 9.84375 -6.65625 C 9.90625 -6.375 9.96875 -6.03125 10.03125 -5.625 C 10.101562 -5.21875 10.175781 -4.785156 10.25 -4.328125 C 10.320312 -3.867188 10.390625 -3.414062 10.453125 -2.96875 C 10.523438 -2.53125 10.582031 -2.132812 10.625 -1.78125 L 10.125 -1.828125 C 10.289062 -2.191406 10.484375 -2.597656 10.703125 -3.046875 C 10.921875 -3.492188 11.140625 -3.945312 11.359375 -4.40625 C 11.585938 -4.863281 11.800781 -5.289062 12 -5.6875 C 12.195312 -6.082031 12.367188 -6.410156 12.515625 -6.671875 L 18.890625 -18.21875 L 22.140625 -18.21875 L 19.125 0 L 16.859375 0 L 18.59375 -10.453125 C 18.65625 -10.859375 18.726562 -11.304688 18.8125 -11.796875 C 18.894531 -12.296875 18.984375 -12.804688 19.078125 -13.328125 C 19.179688 -13.847656 19.285156 -14.363281 19.390625 -14.875 C 19.492188 -15.394531 19.585938 -15.882812 19.671875 -16.34375 L 19.890625 -16.296875 C 19.609375 -15.734375 19.320312 -15.160156 19.03125 -14.578125 C 18.75 -14.003906 18.472656 -13.457031 18.203125 -12.9375 C 17.941406 -12.414062 17.695312 -11.9375 17.46875 -11.5 C 17.238281 -11.070312 17.039062 -10.710938 16.875 -10.421875 L 11.03125 0 L 9.0625 0 L 6.65625 -10.453125 C 6.570312 -10.828125 6.46875 -11.320312 6.34375 -11.9375 C 6.21875 -12.550781 6.085938 -13.238281 5.953125 -14 C 5.816406 -14.769531 5.675781 -15.550781 5.53125 -16.34375 L 5.78125 -16.296875 C 5.71875 -15.816406 5.648438 -15.3125 5.578125 -14.78125 C 5.503906 -14.257812 5.425781 -13.738281 5.34375 -13.21875 C 5.269531 -12.695312 5.195312 -12.195312 5.125 -11.71875 C 5.050781 -11.25 4.976562 -10.816406 4.90625 -10.421875 L 3.203125 0 Z M 0.984375 0 "/></g></g></g><g fill="#ffffff" fill-opacity="1"><g transform="translate(243.750665, 23.007254)"><g><path d="M -0.578125 0 L 9.078125 -18.21875 L 11.734375 -18.21875 L 15.40625 0 L 13.078125 0 L 11.03125 -10.84375 C 10.914062 -11.457031 10.773438 -12.269531 10.609375 -13.28125 C 10.441406 -14.300781 10.265625 -15.582031 10.078125 -17.125 L 10.546875 -17.125 C 9.867188 -15.644531 9.285156 -14.398438 8.796875 -13.390625 C 8.316406 -12.378906 7.898438 -11.53125 7.546875 -10.84375 L 1.953125 0 Z M 3.625 -5.078125 L 3.953125 -7.09375 L 13.21875 -7.09375 L 12.875 -5.078125 Z M 3.625 -5.078125 "/></g></g></g><g fill="#ffffff" fill-opacity="1"><g transform="translate(265.142176, 23.007254)"><g><path d="M 0.984375 0 L 4.015625 -18.21875 L 6.609375 -18.21875 L 12.125 -6.515625 C 12.238281 -6.265625 12.390625 -5.914062 12.578125 -5.46875 C 12.773438 -5.019531 12.988281 -4.503906 13.21875 -3.921875 C 13.445312 -3.335938 13.664062 -2.710938 13.875 -2.046875 L 13.609375 -1.9375 C 13.660156 -2.582031 13.722656 -3.210938 13.796875 -3.828125 C 13.867188 -4.453125 13.945312 -5.03125 14.03125 -5.5625 C 14.113281 -6.101562 14.179688 -6.550781 14.234375 -6.90625 L 16.109375 -18.21875 L 18.40625 -18.21875 L 15.390625 0 L 12.765625 0 L 7.859375 -10.40625 C 7.671875 -10.8125 7.46875 -11.265625 7.25 -11.765625 C 7.039062 -12.265625 6.789062 -12.863281 6.5 -13.5625 C 6.21875 -14.269531 5.875 -15.125 5.46875 -16.125 L 5.78125 -16.25 C 5.65625 -15.269531 5.546875 -14.398438 5.453125 -13.640625 C 5.359375 -12.890625 5.273438 -12.25 5.203125 -11.71875 C 5.128906 -11.1875 5.066406 -10.753906 5.015625 -10.421875 L 3.296875 0 Z M 0.984375 0 "/></g></g></g><g fill="#ffffff" fill-opacity="1"><g transform="translate(288.085763, 23.007254)"><g><path d="M 0.390625 0 L 0.671875 -1.625 L 12.828125 -16.1875 L 2.96875 -16.1875 L 3.3125 -18.21875 L 15.96875 -18.21875 L 15.6875 -16.5625 L 3.5 -2.015625 L 13.375 -2.015625 L 13.03125 0 Z M 0.390625 0 "/></g></g></g><g fill="#ffffff" fill-opacity="1"><g transform="translate(307.986345, 23.007254)"><g><path d="M 6.3125 -18.21875 L 3.28125 0 L 0.984375 0 L 4.015625 -18.21875 Z M 6.3125 -18.21875 "/></g></g></g></g></g></g><g clip-path="url(#4180898304)"><g clip-path="url(#d45c9a1c7d)"><g transform="matrix(1, 0, 0, 1, 241, 0.000000000000000139)"><g clip-path="url(#1918291e8c)"><g clip-path="url(#0f654281c6)"><g clip-path="url(#c34b27403a)"><path fill="#ffffff" d="M 0.320312 0.355469 L 94.6875 0.355469 L 94.6875 55.175781 L 0.320312 55.175781 Z M 0.320312 0.355469 " fill-opacity="1" fill-rule="nonzero"/></g></g></g></g></g></g><g clip-path="url(#44ad911708)"><g clip-path="url(#4aead9fe84)"><g transform="matrix(1, 0, 0, 1, 170, 0.000000000000000139)"><g clip-path="url(#801d9fbbd4)"><g clip-path="url(#196c60713d)"><g clip-path="url(#4de5656619)"><path fill="#ffffff" d="M 0.804688 0.371094 L 50.0625 0.371094 L 50.0625 55.15625 L 0.804688 55.15625 Z M 0.804688 0.371094 " fill-opacity="1" fill-rule="nonzero"/></g></g></g></g></g></g><g clip-path="url(#e6e326849b)"><g clip-path="url(#0dd48fabe1)"><g transform="matrix(1, 0, 0, 1, 331, 0.000000000000000149)"><g clip-path="url(#d5c1ba1f7e)"><g clip-path="url(#40ffa87c8a)"><g clip-path="url(#219f123be8)"><path fill="#ffffff" d="M 0.00390625 0 L 61.746094 0 L 61.746094 55.160156 L 0.00390625 55.160156 Z M 0.00390625 0 " fill-opacity="1" fill-rule="nonzero"/></g></g></g></g></g></g><g clip-path="url(#ee2ff6c165)"><g clip-path="url(#05ecc9c86c)"><g transform="matrix(1, 0, 0, 1, 46, 0.000000000000000149)"><g clip-path="url(#6123775957)"><g clip-path="url(#337e4ca33e)"><g clip-path="url(#37a7e4df3e)"><path fill="#ffffff" d="M 0.894531 0 L 62.636719 0 L 62.636719 55.160156 L 0.894531 55.160156 Z M 0.894531 0 " fill-opacity="1" fill-rule="nonzero"/></g></g></g></g></g></g><g clip-path="url(#71170cd6e8)"><g clip-path="url(#00c78ea5aa)"><g transform="matrix(1, 0, 0, 1, 384, 0.000000000000000139)"><g clip-path="url(#c158ebddf2)"><g clip-path="url(#c7820098fa)"><g clip-path="url(#aa4c71f38e)"><path fill="#ffffff" d="M 0.941406 0.371094 L 60.570312 0.371094 L 60.570312 55.132812 L 0.941406 55.132812 Z M 0.941406 0.371094 " fill-opacity="1" fill-rule="nonzero"/></g></g></g></g></g></g><g clip-path="url(#874ff0a94b)"><g clip-path="url(#39769e116e)"><g transform="matrix(1, 0, 0, 1, 70, 33)"><g clip-path="url(#57ada7ded5)"><g clip-path="url(#2781054c28)"><g clip-path="url(#d0f8f1cd95)"><path fill="#ffffff" d="M 0.375 0.941406 L 16.171875 0.941406 L 16.171875 16.980469 L 0.375 16.980469 Z M 0.375 0.941406 " fill-opacity="1" fill-rule="nonzero"/></g></g></g></g></g></g><g clip-path="url(#c18e883125)"><g clip-path="url(#1e3ad23d64)"><g transform="matrix(1, 0, 0, 1, 353, 33)"><g clip-path="url(#080db9bf13)"><g clip-path="url(#debfb7e982)"><g clip-path="url(#ad00c41274)"><path fill="#ffffff" d="M 0.96875 0.941406 L 16.765625 0.941406 L 16.765625 16.980469 L 0.96875 16.980469 Z M 0.96875 0.941406 " fill-opacity="1" fill-rule="nonzero"/></g></g></g></g></g></g><g clip-path="url(#5bc5428a94)"><path fill="#ffffff" d="M 135.035156 27.542969 C 138.023438 27.542969 140.382812 26.789062 142.121094 25.277344 C 143.855469 23.769531 144.722656 21.683594 144.722656 19.03125 C 144.722656 16.324219 143.855469 14.214844 142.121094 12.703125 C 140.382812 11.195312 138.023438 10.4375 135.035156 10.4375 L 127.1875 10.4375 L 127.1875 27.542969 Z M 114.773438 0.285156 L 123.503906 0.285156 L 135.035156 0.128906 C 139.625 0.128906 143.601562 0.886719 146.964844 2.394531 C 150.328125 3.90625 152.902344 6.039062 154.691406 8.800781 C 156.480469 11.558594 157.375 14.785156 157.375 18.484375 C 157.375 22.230469 156.320312 25.5 154.210938 28.285156 C 152.101562 31.070312 149.207031 33.167969 145.523438 34.570312 L 159.695312 54.957031 L 146.003906 54.957031 L 127.1875 27.855469 L 127.1875 54.957031 L 114.773438 54.957031 Z M 114.773438 0.285156 " fill-opacity="1" fill-rule="nonzero"/></g><g clip-path="url(#28e00e8ff6)"><g clip-path="url(#ea023a7f5d)"><g transform="matrix(1, 0, 0, 1, 0.000000000000000222, 0.000000000000000139)"><g clip-path="url(#9d4fb3ff2a)"><g clip-path="url(#fa75cca150)"><g clip-path="url(#c5ed4f05fa)"><path fill="#ffffff" d="M 0.140625 0.347656 L 43.980469 0.347656 L 43.980469 53.664062 L 0.140625 53.664062 Z M 0.140625 0.347656 " fill-opacity="1" fill-rule="nonzero"/></g></g></g></g></g></g></g></g></g></svg>